<svg xmlns="http://www.w3.org/2000/svg" viewBox="0 0 640 250">
  <rect x="30" y="30" width="580" height="190" fill="#f7fafc" stroke="#143642" stroke-width="2"/>
  <line x1="30" x2="610" y1="30" y2="30" stroke="#d7e0e8" stroke-width="1"/>
  <line x1="30" x2="610" y1="68" y2="68" stroke="#d7e0e8" stroke-width="1"/>
  <line x1="30" x2="610" y1="106" y2="106" stroke="#d7e0e8" stroke-width="1"/>
  <line x1="30" x2="610" y1="144" y2="144" stroke="#d7e0e8" stroke-width="1"/>
  <line x1="30" x2="610" y1="182" y2="182" stroke="#d7e0e8" stroke-width="1"/>
  <line x1="30" x2="610" y1="220" y2="220" stroke="#d7e0e8" stroke-width="1"/>
  <line x1="286.94" y1="118.16" x2="291" y2="173.64" stroke="#16a34a" stroke-width="4" stroke-linecap="round"/>
  <line x1="182.54000000000002" y1="124.24" x2="154.12" y2="172.88" stroke="#16a34a" stroke-width="4" stroke-linecap="round"/>
  <line x1="59" y1="178.96" x2="151.22" y2="177.43999999999997" stroke="#d62828" stroke-width="3.5" stroke-linecap="round"/>
  <line x1="180.8" y1="121.96" x2="284.03999999999996" y2="117.4" stroke="#d62828" stroke-width="3.5" stroke-linecap="round"/>
  <line x1="289.26" y1="176.68" x2="291" y2="213.16000000000003" stroke="#d62828" stroke-width="3.5" stroke-linecap="round"/>
  <rect x="266.44" y="62.8" width="12" height="18" rx="1.5" fill="#e9c46a" stroke="#806400"/>
  <rect x="280.94" y="62.040000000000006" width="12" height="18" rx="1.5" fill="#e9c46a" stroke="#806400"/>
  <rect x="334.88" y="62.040000000000006" width="12" height="18" rx="1.5" fill="#e9c46a" stroke="#806400"/>
  <rect x="167.84" y="62.040000000000006" width="12" height="18" rx="1.5" fill="#e9c46a" stroke="#806400"/>
  <rect x="184.08" y="59.75999999999999" width="12" height="18" rx="1.5" fill="#e9c46a" stroke="#806400"/>
  <circle cx="74.08" cy="72.56" r="6" fill="#9aa7b4" stroke="#526173"/>
  <circle cx="107.14" cy="74.84" r="6" fill="#9aa7b4" stroke="#526173"/>
  
  <text x="40" y="22" font-size="11" fill="#143642">Kugelfang / Backstop</text>
  <text x="40" y="242" font-size="11" fill="#143642">Rueckraum</text>
</svg>